<svg xmlns="http://www.w3.org/2000/svg" width="85" height="16" viewBox="0 0 85 16"><title>  stars-active</title><desc>  Created with Sketch.</desc><g fill="none"><g fill="#FF7C0B"><path d="M8.1 12.9L12 15.3C12.7 15.7 13.6 15 13.4 14.2L12.3 9.8 15.8 6.8C16.4 6.3 16.1 5.2 15.2 5.2L10.7 4.8 8.9 0.6C8.6-0.2 7.5-0.2 7.2 0.6L5.4 4.8 0.9 5.1C0 5.2-0.3 6.2 0.3 6.8L3.8 9.8 2.7 14.2C2.6 15 3.4 15.7 4.1 15.2L8.1 12.9 8.1 12.9Z"/><path d="M25.1 12.9L29 15.3C29.7 15.7 30.6 15 30.4 14.2L29.4 9.8 32.8 6.8C33.5 6.3 33.1 5.2 32.3 5.2L27.7 4.8 26 0.6C25.6-0.2 24.6-0.2 24.2 0.6L22.5 4.8 17.9 5.1C17.1 5.2 16.7 6.2 17.4 6.8L20.8 9.8 19.8 14.2C19.6 15 20.5 15.7 21.2 15.2L25.1 12.9 25.1 12.9Z"/><path d="M42.2 12.9L46.1 15.3C46.8 15.7 47.6 15 47.5 14.2L46.4 9.8 49.9 6.8C50.5 6.3 50.2 5.2 49.3 5.2L44.8 4.8 43 0.6C42.7-0.2 41.6-0.2 41.3 0.6L39.5 4.8 35 5.1C34.1 5.2 33.8 6.2 34.4 6.8L37.9 9.8 36.8 14.2C36.7 15 37.5 15.7 38.2 15.2L42.2 12.9 42.2 12.9Z"/><path d="M59.2 12.9L63.1 15.3C63.8 15.7 64.7 15 64.5 14.2L63.5 9.8 66.9 6.8C67.6 6.3 67.2 5.2 66.4 5.2L61.8 4.8 60.1 0.6C59.7-0.2 58.7-0.2 58.3 0.6L56.6 4.8 52 5.1C51.2 5.2 50.8 6.2 51.5 6.8L54.9 9.8 53.9 14.2C53.7 15 54.6 15.7 55.3 15.2L59.2 12.9 59.2 12.9Z"/><path d="M76.2 12.9L80.2 15.3C80.9 15.7 81.7 15 81.6 14.2L80.5 9.8 84 6.8C84.6 6.3 84.3 5.2 83.4 5.2L78.9 4.8 77.1 0.6C76.8-0.2 75.7-0.2 75.4 0.6L73.6 4.8 69.1 5.1C68.2 5.2 67.9 6.2 68.5 6.8L72 9.8 70.9 14.2C70.8 15 71.6 15.7 72.3 15.2L76.2 12.9 76.2 12.9Z"/></g></g></svg>